<?xml version="1.0" encoding="UTF-8"?> <svg xmlns="http://www.w3.org/2000/svg" id="Livello_2" viewBox="0 0 2315.5 594.76"><defs><style> .cls-1 { fill: #161616; } .cls-2 { fill: #161616; } </style></defs><g id="Livello_1-2" data-name="Livello_1"><g><g><path class="cls-2" d="M1291.54,206.54c-.91-16.37-10.51-26.84-24.76-27.36-3.85-.14-7.74.09-11.58.48-3.53.35-6.56,1.81-8.35,5.8l-2.98,3.67c0,.06,0,.11,0,.17-.07,1.07-.31,2.15-.68,3.22l.07-.08c-.11.28-.23.56-.35.83-.08.21-.17.41-.26.62-3.89,9.46-7.95,18.85-11.95,28.26-5.61,13.19-11.2,26.39-16.88,39.56-.79,1.84-2.03,3.48-3.07,5.22-.45-.11-.9-.22-1.36-.32-2.51-7.31-5.22-14.57-7.63-21.91l-.86-2.67c-.4-1.28-.8-2.56-1.18-3.84-4.03-13.6-7.36-27.4-11.32-41.02-1.4-4.8-3.01-10.22-9.94-8.54-.33-1.57-.19-3.12-.9-3.96-3.04-3.58-15.3-5.87-19.83-4.42-2.01.64-4.42.06-6.65-.04-.91-.04-1.84-.53-2.71-.42-3.42.42-6.8,1.08-10.22,1.5-3.31.41-4.84,2.15-4.85,5.5,0,3.86-.09,7.73-.35,11.59-1.7,25.87-3.48,51.73-5.15,77.6-.23,3.57.04,7.17-.07,10.76-.19,6.04-.63,12.07-.73,18.11-.13,7.62-1.01,28.59-1.01,35.26h0c-.17,1.22-.31,2.43-.43,3.65-.77,7.82-1.61,15.64-2.1,23.48-.33,5.23,1.91,8.77,5.42,8.71,15.26-.29,30.51-.8,46.19-1.25.84-19.69-.46-38.78,2.79-57.77,2.02,2.9,3.7,5.86,4.96,8.98,3.44,8.56,6.34,17.35,10.13,25.74,3.8,8.42,12.03,11.26,19.07,7.03,6.1-3.67,11.37-8.32,14.36-15.03,3.31-7.43,6.39-14.96,9.89-22.3,1.4-2.93,3.64-5.46,5.49-8.17.5.19.99.39,1.49.58.21,2.24.67,4.5.57,6.73-.41,9.65-.96,19.3-1.52,28.94-.41,7.03-.95,14.04-1.37,21.07-.1,1.74-.44,3.67,2.41,3.78,14.05.54,28.1,1.31,42.15,1.68,5.4.14,6.22-1.01,6.49-6.22.11-2.07.17-4.14.17-6.21,0-42.8.01-85.6-.05-128.4-.01-9.52-.03-19.06-.56-28.57Z"></path><path class="cls-2" d="M1044.03,177.35c-13.5-.26-27.02-.08-40.99-.08-.72,5.53-1.67,10.8-2.06,16.11-1.32,18.01-2.48,36.03-3.62,54.05-.17,2.65-1.32,3.44-3.88,3.55-3.15.13-6.26,1.16-9.4,1.23-8.62.18-17.25.06-26.54.06,1.25-24.87,2.49-49.44,3.75-74.52-13.53,0-25.92-.16-38.31.07-6.31.12-7.65,1.48-8.25,7.86-1.06,11.25-1.81,22.52-2.71,33.78-1.59,20.07-3.31,40.13-4.76,60.21-1.24,17.2-2.28,34.43-3.19,51.65-.71,13.36-1.08,26.74-1.61,40.1-.13,3.18,1.03,4.8,4.55,4.64,12.8-.57,25.61-.95,38.42-1.45,2.97-.12,5.93-.41,8.64-.6.72-21.05,1.5-41.6,2.08-62.14.28-9.89.13-9.84,9.49-13.39,9.62-3.65,19.58-5.08,29.76-5.31,0,4.81.17,9.2-.03,13.57-.69,15.44-1.45,30.89-2.31,46.32-.19,3.49-.61,7.02-1.42,10.41-1.3,5.39,1.29,9.15,6.85,9.17,12.7.04,25.4.05,38.11.02,8.73-.02,7.92.69,8.12-8.08.8-34.35-1.17-68.72,1.79-103.06,2.2-25.56,3.1-51.23,4.6-76.85.33-5.73-.67-7.19-7.07-7.31Z"></path><path class="cls-2" d="M1885.75,177.25c-1.1.07-2.19.23-3.29.34-6.31.63-12.6,1.55-18.92,1.83-27.39,1.23-54.8,2.28-82.19,3.39-6.43.26-9.03,2.19-9.97,8.54-.79,5.3-.86,10.71-1.34,16.06-1.21,13.6-2.88,27.17-3.62,40.79-1.3,23.68-2.12,47.4-3,71.1-.6,16.13-1.12,32.27-1.39,48.42-.1,6.06,2.7,8.42,8.71,8.46,1.1,0,2.21-.08,3.31-.14,19.39-1.16,38.77-2.39,58.16-3.48,18.83-1.06,37.66-2.06,56.5-2.91,3.05-.14,3.61-1.42,3.6-4.08-.05-10.35.05-20.7.15-31.06.1-9.53,0-9.75-9.57-9.49-19.03.53-38.05,1.2-57.08,1.75-4.35.13-8.71.02-13.14.02,0-8.12-.1-15.28.11-22.42.03-1.02,1.45-2.71,2.45-2.89,6.75-1.2,13.56-2.09,20.35-3.05,12.69-1.8,25.41-3.46,38.06-5.53,1.93-.31,4.77-2.21,5.1-3.81.96-4.65,1.5-9.41,1.81-14.17,0,0,0-.02,0-.03,1.86-10.46-1.61-19.74-1.61-19.74l-8.85-1.19c-.94-.15-1.88-.28-2.82-.38h-.02s0,0,0,0c-1.96-.21-3.92-.31-5.86-.22-11.41.56-22.78,2.02-34.17,3.01-2.88.25-5.8.22-8.68.06-2.82-.16-4.76-1.6-4.53-4.7.39-5.21,1-10.41,1.46-15.62.41-4.56,3.26-6.39,7.43-6.8,5.9-.57,11.8-1.12,17.7-1.68,17.71-1.69,35.43-3.36,53.14-5.1,5.03-.49,6.67-1.99,6.88-7.02.34-7.99.37-16,.38-24,.02-12.95-2.26-15.03-15.24-14.25Z"></path><path class="cls-2" d="M2162.06,198.57c-14.73-21.11-36.13-26.66-61.05-21.65-16.84,3.39-28.97,14.11-38.21,28.19-7.94,12.11-13.49,25.38-16.34,39.49-2.16,10.71-7.03,21.31-3.47,32.69.08.25.02.55,0,.82-.21,3.44-.17,6.92-.67,10.32-2.94,19.93-.15,38.85,8.74,57.05,12.84,26.27,39.58,34.65,64.2,29.56,9.77-2.02,19.98-5.04,28.1-11.75l7.36-6.18c3.68-3.18,20.33-42.57,20.91-45.23,1.2-5.49,2.15-11.04,2.98-16.6,2.76-18.52,2.89-37.14,1.49-55.75-1.11-14.79-5.59-28.84-14.05-40.96ZM2129.56,276.56l-.6,6.22c-2.03,9.82-4.06,19.66-6.69,29.33-1.28,4.69-3.73,9.11-5.97,13.49-3.18,6.2-9.05,5.9-14.78,5.54-5.01-.31-6.77-4.09-8.23-8.08-4.56-12.53-3.82-25.46-2.89-38.4.48-6.71.29-13.53,1.51-20.1,2.02-10.91,4.52-21.77,7.63-32.42,1.43-4.88,4.23-9.63,7.4-13.67,6.4-8.15,14.89-6.57,18.68,3.11,3.37,8.61,3.87,17.69,3.93,26.79.06,9.36.01,18.73.01,28.19Z"></path><path class="cls-2" d="M1744.32,179.66c-9.66-.16-19.33-.2-28.99.01-5.24.11-7.59,2.1-8.61,7.18-.86,4.3-1.45,8.72-1.62,13.1-.74,18.62-.98,37.25-1.97,55.85-.86,16.09-2.44,32.15-3.84,48.21-.25,2.86-.78,5.81-1.82,8.45-2.79,7.06-5.46,14.29-14.42,16.04-2.7.53-5.17,2.18-8.25,3.55-.94-.67-2.07-1.75-3.41-2.37-8.05-3.71-11.23-10.44-11.05-18.75.38-17.37,1.04-34.73,1.81-52.08.33-7.42,1.3-14.81,1.79-22.23,1.05-16.09,2.16-32.19,2.87-48.3.29-6.57-2-8.61-8.69-8.72-9.25-.15-18.51-.25-27.74.17-2.16.1-4.82,1.93-6.16,3.76-1.55,2.1-2.3,5.03-2.68,7.7-1.26,8.96-2.22,17.97-3.25,26.97-1.54,13.56-3.63,27.09-4.44,40.69-1.39,23.39-3.78,46.79-1.08,70.28,1.07,9.35,3.69,18.09,8.29,26.2,3.71,6.53,8.08,12.71,15.58,15.34,19.34,6.79,38.92,8,58.89,2.63,18.98-5.1,33.98-15.32,42.43-33.34,6.6-14.09,9.84-29.44,10.57-44.8,1.47-30.73,1.58-61.53,2.31-92.3.06-2.46.35-4.97.95-7.35,1.32-5.25.15-9.88-3.24-13.88-.94-1.11-2.79-2-4.23-2.03Z"></path><path class="cls-2" d="M862.51,182.99c-11.69-5.55-23.92-6.19-36.34-5.68-15.77.65-29.65,6.58-40.54,17.93-20.16,21.02-31.31,52.14-34.97,81.56-2.98,23.95-3.94,40.76,5.06,63.33,10.31,25.88,31.73,37.48,56.93,36.21,33.6-1.69,53.67-23.29,68.35-51.12,2.56-4.86,1.64-9.66-2.42-13.63-4.54-4.44-8.97-8.99-13.62-13.3-4.33-4.01-5.16-4.02-8.64.95-4.58,6.54-8.81,13.33-13.08,20.08-3.16,4.98-6.96,9.15-12.34,11.87-13.93,7.05-22.96,3.19-27.22-11.9-3.37-11.95-3.97-24.09-2.52-36.39,1.76-14.96,4.63-29.64,10.83-43.49,3.53-7.89,7.79-15.28,15.33-20.1,3.28-2.1,6.93-4.15,10.8-2.28,4.18,2.01,4.75,6.37,4.33,10.4-.52,5.04-1.81,9.99-2.67,15-.84,4.84-1.69,9.69-2.28,14.57-.34,2.84,1.44,3.8,4.12,3.76,6.49-.08,12.98-.03,19.46-.03,0,.05,0,.11,0,.16,6.35,0,12.71-.17,19.05.07,3.38.13,5-1.15,5.85-4.33,3.33-12.45,3.74-25.1,2.23-37.77-1.97-16.54-10.31-28.55-25.69-35.86Z"></path><path class="cls-2" d="M2260.34,217.39c5.14-3,9.79-.67,10.52,5.29.75,6.13.87,12.37.86,18.56,0,3.61,1.13,5.48,4.87,5.53,11.58.16,23.17.38,34.75.56,2.98.05,4.23-1.62,4.16-4.43-.26-10.2.09-20.46-.96-30.57-1.55-14.97-9.88-24.65-24.45-29.57-10.69-3.61-21.31-3.73-32.19-2.44-22.84,2.7-41.07,12.24-51.72,33.83-7.39,14.98-9.6,30.42-5.51,46.55,3.39,13.38,13.75,21.33,24.26,28.79,7.62,5.41,15.92,9.87,23.59,15.23,3.9,2.73,7.66,6.1,10.37,9.96,2.06,2.94,2.77,7.05,3.33,10.75.34,2.25-.29,4.29-1.93,5.7l-1.03.73c-.43.25-.9.47-1.41.65-2.08.23-5.83.17-12.54-.61,0,0-24.29-2.16-27.48-3.49l-18.71-6.99c-1.07-.14-3.77,4.73-4.3,5.67-3.21,5.73-10.19,20.92-8.1,23.85,0,0,.52,1.61,2.11,4.02.2,1.08.89,2.03,2.2,2.91,1.94,2.28,4.68,4.87,8.51,7.39l-.33-.22c.39.05.56.6.96.62,8.11,5.16,20.86,9.9,40.69,10.8,12.42.56,18.26.1,20.14-.88,2.8-.32,5.6-.78,8.4-1.37,16.3-3.46,30.46-10.13,38.26-26.3,4.49-9.31,6.13-19.05,6.18-29.19.07-13.81-3.93-26.19-14.11-35.85-5.27-5-11.11-9.44-16.99-13.73-7.23-5.27-14.98-9.83-22.12-15.2-10.33-7.76-10.75-19.17-6.61-29.83,1.04-2.68,3.75-5.2,6.32-6.71Z"></path><path class="cls-2" d="M1596.2,188.6c-7.76-3.18-15.49-6.42-23.26-9.56-.05-.02-.12-.03-.17-.05h0c-.08-.03-.17-.05-.26-.07-.13-.03-.26-.07-.4-.09-3.18-.75-12.08-3.03-14.1-3.47-4.08,12.74-8.12,25.12-12.01,37.54-6.37,20.34-12.61,40.71-19.02,61.04-.72,2.29-2.15,4.35-3.25,6.51-.6-.17-1.21-.33-1.81-.5-.67-2.78-1.32-5.57-2-8.34-5.54-22.58-11.06-45.17-16.63-67.74-1.68-6.79-3.26-13.62-5.41-20.27-.53-1.65-3.06-3.72-4.73-3.77-11.03-.31-22.06-.13-33.1-.05-.93,0-1.94.32-2.78.75-2.91,1.49-4.84,3.32-3.65,7.19,1.53,4.98,2.68,10.09,3.73,15.2,5.25,25.64,10.28,51.33,15.66,76.95,3.84,18.31,8.02,36.56,12.21,54.8,2.74,11.92,5.78,23.78,8.7,35.66,1.11,4.51,3.65,6.39,8.6,5.93,10.4-.95,20.85-1.47,31.29-1.9,9.79-.41,9.8-.26,12.83-9.6.08-.26.09-.54.17-.81,11.04-35.88,22.09-71.75,33.13-107.63,6.32-20.52,12.59-41.05,19.01-61.53.99-3.16.15-4.99-2.77-6.19Z"></path><path class="cls-2" d="M2031.01,324.38c.05-4.11-1.6-4.94-5.39-4.91-19.04.16-38.09.04-57.13.02-2.32,0-4.63,0-7.79,0,.47-12.86.84-24.98,1.36-37.09,1.26-29.21,2.58-58.42,3.95-87.63.08-1.68.55-3.44,1.25-4.97,1.95-4.23-.93-10.71-5.63-11.03-11.25-.77-22.54-1.08-33.81-1.39-5.91-.16-7.92,1.81-8.18,7.76-.67,15.29-1.17,30.58-1.86,45.87-.39,8.54-1.11,17.06-1.51,25.6-.82,17.2-1.51,34.41-2.28,51.62-.6,13.5-1.21,27-1.9,40.5-.15,2.87-.89,5.72-.95,8.59-.12,5.05.04,10.11.16,15.16.07,3.1,1.98,3.84,4.75,3.61,4.94-.41,9.89-.75,14.85-.97,13.63-.6,27.27-1.09,40.9-1.69,17.5-.78,35-1.63,52.5-2.45,5.77-.27,6.63-.77,6.7-6.44.18-13.38-.12-26.77.03-40.15Z"></path><path class="cls-2" d="M1114.06,177.79c-11.87-.1-23.74-.1-35.62-.02-6.39.04-7.41,1.06-8.4,7.51-.17,1.09-.24,2.19-.32,3.3-.82,12.53-1.7,25.05-2.43,37.58-1.66,28.51-2.27,58.08-3.88,86.6.32.01-.32-1.03,0-1.02,0,17.26,0,34.51,0,51.77,0,3.17-.19,6.37.18,9.5.12,1.04,1.71,2.73,2.64,2.74,2.62.02,5.23.15,7.86.29l-.05.39h35.1c7.36-.08,5.64-11.95,5.64-11.95h0c.07-.62.16-1.24.28-1.85.57-2.78-.16-5.55-.75-8.32-.03-2.39-.05-5.1-.05-8.05.19-.52.42-1.04.72-1.55.26-.45-.21-1.32-.31-1.99-.14-.88-.26-1.75-.39-2.63.06-11.73.28-25.84.52-38.34.14-.58.24-1.16.25-1.75.38-14.21.21-28.43.82-42.62.57-13.32,2.01-26.61,2.83-39.93.56-9.23.7-18.49,1.07-27.74.04-1.09.27-2.19.56-3.25,1.5-5.48-.63-8.59-6.29-8.64Z"></path><path class="cls-2" d="M1360.52,177.75c-13.93.06-27.86.06-41.79.19-1.01,0-2.75.77-2.9,1.47-.92,4.07-2.31,21.73-2.99,25.86-.81,9.37-1.65,17.72-2.24,26.08-1.29,18.3-2.94,36.59-3.56,54.91-.95,28.12-1.12,56.26-1.73,84.39-.08,3.8,1.63,5.43,5.09,5.27,14.29-.63,28.57-1.43,42.86-2.07,3.35-.15,3.97-1.88,3.86-4.86-.48-12.66-.65-25.33-1.26-37.98-.11-2.29-3.03-5.94-2.41-6.51,2.49-2.26,2.91-4.7,2.82-7.69-.12-3.63-.19-7.29.04-10.91.76-11.96,1.8-23.9,2.47-35.86,1.19-21.21,2.16-42.42,3.3-63.63.45-8.49,1.07-16.96,1.64-25.45.16-2.32-.96-3.22-3.19-3.21Z"></path></g><g id="Livello_1-2"><g><path class="cls-1" d="M716.26,20.09c9.73-.27,17.3-4.49,23.4-12.09,2.64-3.29,4.76-9.42,10.28-7.06,5.04,2.16,6.3,7.95,5.62,13.22-1.34,10.14-3.12,20.24-4.8,30.31-23.94,142.26-46.35,284.65-45.97,429.48,0,9.42-.48,18.43,4.45,28.02,5.17,10-2.4,18.46-12.81,21.61-7.12,2.16-14.46.45-21.82-1.58-83.37-23.05-166.89-45.76-245.94-81.7-8.46-3.84-13.77-3.39-20.42,4.18-38.64,44.19-78.2,87.59-116.94,131.67-23.81,27.06-40.01,25.14-51.28-9.42-14.42-44.32-26.34-89.51-39.19-134.34-9.11-31.72-18.46-63.4-26.79-95.33-4.21-16.13-12.95-26.44-28.33-33.47-47.61-21.79-95.81-42.92-134.21-80.19-4.28-4.14-12.57-6.58-11.41-13.53,1.23-7.23,9.45-6.75,15.38-8.5,3.15-.92,8.5-2.74,8.6-4.42,1.03-17.13,15.69-15.48,25.96-19.05,154.28-53.81,312.33-95.36,468.08-144.42,54.19-17.06,111.94-20.24,168.12-29.49,6.2-1.03,12.4-2.02,18.63-2.67,4.21-.45,9.45-3.56,12.37,1.54,2.88,5.04-.1,9.76-3.46,13.84-.55,1.06-1.1,2.12-1.64,3.19,1.37,0,2.77.07,4.14.1l-.03.07ZM723.9,52.15c-7.4.1-11.06,4.93-15.38,8.32-58.64,46.17-116.91,92.83-177.13,136.95-75.84,55.53-150.58,112.59-229.02,164.45-3.7,2.47-8.67,4.8-6.85,10.24,1.1,3.29,5.21,3.84,8.8,3.94,38.6.99,74.98,12.67,111.36,23.91,80.46,24.8,157.84,58.81,239.68,79.78,15.14,3.87,17.68.45,17.64-12.61-.17-48.5,4.08-96.8,7.5-145.13,6.1-85.33,15.21-170.17,41.17-252.25,1.68-5.28,4.38-10.58,2.19-17.61h.03ZM662.69,36.56c-14.52-3.05-24.42-1.4-34.39-.03-57.86,7.98-112.42,28.57-168.19,44.39-114.34,32.51-226.42,72.58-341.48,102.87-23.57,6.2-47,13.02-72.86,20.21,42.13,30.49,83.34,55.7,125.51,79.5,9.08,5.14,15,.92,21.41-3.7,102.56-74.09,214.94-130.61,329.35-183.33,44.91-20.69,90.98-38.84,140.65-59.91ZM632.85,83.73c-3.36-.24-5.14-.79-6.65-.38-3.29.89-6.47,2.16-9.63,3.49-141.16,59.98-277.7,128.76-406.19,213.03-11.61,7.6-15.14,14.93-11,28.02,11.27,35.8,21.72,71.87,32.51,107.8,5.99,19.94,10.34,40.42,20.31,62.86,6.06-42.06,11.75-80.67,17.06-119.34,1.64-11.85.79-24.56,18.81-23.7,3.01.14,6.41-4.32,9.39-6.89,14.18-12.3,28.29-24.73,42.44-37.06,65.39-56.96,137.67-104.82,207-156.61,29.46-21.99,58.95-44.05,85.94-71.21ZM276.44,545.96c2.33-.45,3.8-.24,4.35-.89,32.06-37.03,64.02-74.13,96.08-111.12,4.14-4.76,3.46-7.26-2.19-10.07-22.98-11.51-46.65-21.07-71.8-26.72-5.82-1.3-9.69-.96-10.52,6.54-5.14,47.3-10.58,94.61-15.96,142.29l.03-.03Z"></path><path class="cls-1" d="M716.26,20.09c-1.37,0-2.77-.07-4.14-.1.55-1.06,1.1-2.12,1.64-3.19.82,1.1,1.68,2.19,2.5,3.29h0Z"></path></g></g><g><path class="cls-1" d="M1023.72,478.1h-15.34c-1.02,0-1.88-.24-2.58-.73-.7-.49-1.06-1.19-1.06-2.1v-40.66c0-.91.33-1.61.99-2.1.66-.49,1.5-.74,2.52-.76h13.33c3.64,0,6.83.82,9.56,2.47,2.64,1.54,4.12,3.69,4.42,6.47l-.03,7.87c-.06.54-.29,1.06-.67,1.56-.38.5-.82,1.01-1.32,1.53-.32.28-.99.96-1.98,2.05,4.12,1.93,6.17,4.32,6.17,7.18v8.03c0,2.79-1.44,5.02-4.32,6.66-2.75,1.69-5.98,2.54-9.69,2.54ZM1020.18,451.71c2.36-.04,4.3-.44,5.82-1.2,1.5-.71,2.24-1.56,2.24-2.53v-6.31c0-.41-.22-.85-.67-1.32-.44-.46-1.11-.9-2-1.32-1.84-.78-3.96-1.18-6.37-1.2h-7.15v13.85l8.12.03ZM1021.38,472.06l1.49-.13c3.38-.26,5.59-.89,6.63-1.88.52-.5.81-1.14.88-1.92v-7.15c0-.41-.22-.84-.67-1.28-.44-.44-1.1-.86-1.97-1.25-1.78-.76-3.85-1.15-6.21-1.17h-9.49v14.72c3.47,0,6.58.02,9.33.06Z"></path><path class="cls-1" d="M1054.69,478.1c-1.02,0-1.88-.24-2.58-.73-.7-.49-1.06-1.19-1.06-2.1v-40.66c0-.91.35-1.61,1.06-2.11.7-.5,1.56-.75,2.58-.75s1.91.25,2.62.75c.7.5,1.06,1.2,1.06,2.11v40.66c0,.91-.35,1.61-1.06,2.1-.7.49-1.58.73-2.62.73Z"></path><path class="cls-1" d="M1097.14,478.1h-21.81c-1.02,0-1.88-.24-2.58-.73-.7-.49-1.06-1.19-1.06-2.1v-40.66c0-.91.36-1.61,1.09-2.11.73-.5,1.54-.75,2.45-.75,1.04,0,1.93.25,2.67.75.74.5,1.1,1.2,1.1,2.11v37.41h18.13c.95,0,1.67.29,2.16.88.49.58.73,1.3.73,2.15s-.24,1.59-.73,2.18c-.49.58-1.21.88-2.16.88Z"></path><path class="cls-1" d="M1138.8,478.1h-21.81c-1.02,0-1.88-.24-2.58-.73-.7-.49-1.06-1.19-1.06-2.1v-40.66c0-.91.36-1.61,1.09-2.11.73-.5,1.54-.75,2.45-.75,1.04,0,1.93.25,2.67.75.74.5,1.1,1.2,1.1,2.11v37.41h18.13c.95,0,1.67.29,2.16.88.49.58.73,1.3.73,2.15s-.24,1.59-.73,2.18c-.49.58-1.21.88-2.16.88Z"></path><path class="cls-1" d="M1182.97,478.1h-24.47c-.95,0-1.77-.25-2.45-.76-.68-.51-1.02-1.2-1.02-2.06v-40.66c0-.91.34-1.61,1.01-2.1.67-.49,1.53-.74,2.57-.76h24.38c.93,0,1.64.3,2.13.89.49.6.73,1.32.73,2.16s-.24,1.57-.73,2.16c-.49.6-1.2.89-2.13.89h-20.64v14.01h16.9c.93,0,1.64.3,2.13.89.49.6.73,1.32.73,2.16s-.24,1.57-.73,2.16c-.49.6-1.2.89-2.13.89h-16.9v14.04h20.64c.93,0,1.64.29,2.13.88.49.58.73,1.3.73,2.15s-.24,1.59-.73,2.18c-.49.58-1.2.88-2.13.88Z"></path><path class="cls-1" d="M1214.56,478.1c-1.04,0-1.91-.24-2.6-.73-.69-.49-1.04-1.19-1.04-2.1v-37.41h-7.93c-1.32,0-2.29-.31-2.91-.93s-.93-1.33-.93-2.13.31-1.51.93-2.13c.62-.62,1.59-.93,2.91-.93h23.11c1.32,0,2.3.31,2.93.94.63.63.94,1.33.94,2.11s-.31,1.48-.94,2.11-1.6.94-2.93.94h-7.9v37.41c0,.91-.35,1.61-1.04,2.1-.69.49-1.56.73-2.6.73Z"></path><path class="cls-1" d="M1271.24,478.1h-24.47c-.95,0-1.77-.25-2.45-.76-.68-.51-1.02-1.2-1.02-2.06v-40.66c0-.91.34-1.61,1.01-2.1.67-.49,1.53-.74,2.57-.76h24.38c.93,0,1.64.3,2.13.89.49.6.73,1.32.73,2.16s-.24,1.57-.73,2.16c-.49.6-1.2.89-2.13.89h-20.64v14.01h16.9c.93,0,1.64.3,2.13.89.49.6.73,1.32.73,2.16s-.24,1.57-.73,2.16c-.49.6-1.2.89-2.13.89h-16.9v14.04h20.64c.93,0,1.64.29,2.13.88.49.58.73,1.3.73,2.15s-.24,1.59-.73,2.18c-.49.58-1.2.88-2.13.88Z"></path><path class="cls-1" d="M1291.07,478.1c-1.02,0-1.88-.24-2.58-.73-.7-.49-1.06-1.19-1.06-2.1v-40.66c0-.91.33-1.61.99-2.1.66-.49,1.5-.74,2.52-.76h13.42c3.64,0,6.79.82,9.46,2.47,2.64,1.54,4.12,3.69,4.42,6.47v8.42c0,2.43-1.96,4.85-5.88,7.28l6.37,17.42c.11.35.16.68.16,1.01,0,.46-.19.97-.57,1.54-.38.57-1.07,1.04-2.06,1.41-.58.2-1.14.29-1.66.29-.39,0-.86-.08-1.41-.23-.55-.15-.99-.65-1.32-1.5l-6.73-18.33h-10.4v17.26c0,.91-.35,1.61-1.06,2.1-.7.49-1.58.73-2.62.73ZM1299.97,452.01c2.75,0,5.5-.41,8.25-1.23.91-.43,1.59-.88,2.03-1.35.44-.47.67-.91.67-1.32v-6.44c0-.41-.22-.85-.67-1.32-.44-.46-1.12-.92-2.03-1.35-2.47-.82-5.07-1.23-7.8-1.23-.67,0-1.33.02-1.98.06h-3.71v14.04l5.23.13Z"></path><path class="cls-1" d="M1335.85,478.1c-1.02,0-1.88-.24-2.58-.73-.7-.49-1.06-1.19-1.06-2.1v-40.66c0-.91.35-1.61,1.06-2.11.7-.5,1.56-.75,2.58-.75s1.91.25,2.62.75c.7.5,1.06,1.2,1.06,2.11v40.66c0,.91-.35,1.61-1.06,2.1-.7.49-1.58.73-2.62.73Z"></path><path class="cls-1" d="M1386.06,478.1c-.39,0-.87-.09-1.43-.26-.56-.17-1.01-.69-1.33-1.56l-5.23-15.37h-13.1l-5.2,15.37c-.48,1.21-1.41,1.82-2.79,1.82-.52,0-1.06-.09-1.62-.26-.95-.35-1.67-.88-2.15-1.59-.24-.39-.36-.81-.36-1.27,0-.32.05-.67.16-1.04l13.68-40.33c.04-.17.12-.3.23-.39,1.39-.91,2.93-1.4,4.62-1.46,1.67.11,3.17.58,4.52,1.43l.23.2s4.64,13.55,13.78,40.53c.11.37.16.71.16,1.04,0,.46-.18.96-.54,1.51-.36.55-1.04,1-2.03,1.35-.56.19-1.09.29-1.59.29ZM1376.25,455.45l-4.71-13.97-4.71,13.97h9.42Z"></path><path class="cls-1" d="M1477.71,478.1c-.39,0-.87-.09-1.43-.26-.56-.17-1.01-.69-1.33-1.56l-5.23-15.37h-13.1l-5.2,15.37c-.48,1.21-1.41,1.82-2.79,1.82-.52,0-1.06-.09-1.62-.26-.95-.35-1.67-.88-2.15-1.59-.24-.39-.36-.81-.36-1.27,0-.32.05-.67.16-1.04l13.68-40.33c.04-.17.12-.3.23-.39,1.39-.91,2.93-1.4,4.62-1.46,1.67.11,3.17.58,4.52,1.43l.23.2s4.64,13.55,13.78,40.53c.11.37.16.71.16,1.04,0,.46-.18.96-.54,1.51-.36.55-1.04,1-2.03,1.35-.56.19-1.09.29-1.59.29ZM1467.9,455.45l-4.71-13.97-4.71,13.97h9.42Z"></path><path class="cls-1" d="M1523.15,478.1h-24.47c-.95,0-1.77-.25-2.45-.76-.68-.51-1.02-1.2-1.02-2.06v-40.66c0-.91.34-1.61,1.01-2.1.67-.49,1.53-.74,2.57-.76h24.38c.93,0,1.64.3,2.13.89.49.6.73,1.32.73,2.16s-.24,1.57-.73,2.16c-.49.6-1.2.89-2.13.89h-20.64v14.01h16.9c.93,0,1.64.3,2.13.89.49.6.73,1.32.73,2.16s-.24,1.57-.73,2.16c-.49.6-1.2.89-2.13.89h-16.9v14.04h20.64c.93,0,1.64.29,2.13.88.49.58.73,1.3.73,2.15s-.24,1.59-.73,2.18c-.49.58-1.2.88-2.13.88Z"></path><path class="cls-1" d="M1542.97,478.1c-1.02,0-1.88-.24-2.58-.73-.7-.49-1.06-1.19-1.06-2.1v-40.66c0-.91.33-1.61.99-2.1.66-.49,1.5-.74,2.52-.76h13.42c3.64,0,6.79.82,9.46,2.47,2.64,1.54,4.12,3.69,4.42,6.47v8.42c0,2.43-1.96,4.85-5.88,7.28l6.37,17.42c.11.35.16.68.16,1.01,0,.46-.19.97-.57,1.54-.38.57-1.07,1.04-2.06,1.41-.58.2-1.14.29-1.66.29-.39,0-.86-.08-1.41-.23-.55-.15-.99-.65-1.32-1.5l-6.73-18.33h-10.4v17.26c0,.91-.35,1.61-1.06,2.1-.7.49-1.58.73-2.62.73ZM1551.88,452.01c2.75,0,5.5-.41,8.25-1.23.91-.43,1.59-.88,2.03-1.35.44-.47.67-.91.67-1.32v-6.44c0-.41-.22-.85-.67-1.32-.44-.46-1.12-.92-2.03-1.35-2.47-.82-5.07-1.23-7.8-1.23-.67,0-1.33.02-1.98.06h-3.71v14.04l5.23.13Z"></path><path class="cls-1" d="M1612.07,478.1h-24.47c-.95,0-1.77-.25-2.45-.76-.68-.51-1.02-1.2-1.02-2.06v-40.66c0-.91.34-1.61,1.01-2.1.67-.49,1.53-.74,2.57-.76h24.38c.93,0,1.64.3,2.13.89.49.6.73,1.32.73,2.16s-.24,1.57-.73,2.16c-.49.6-1.2.89-2.13.89h-20.64v14.01h16.9c.93,0,1.64.3,2.13.89.49.6.73,1.32.73,2.16s-.24,1.57-.73,2.16c-.49.6-1.2.89-2.13.89h-16.9v14.04h20.64c.93,0,1.64.29,2.13.88.49.58.73,1.3.73,2.15s-.24,1.59-.73,2.18c-.49.58-1.2.88-2.13.88Z"></path><path class="cls-1" d="M1661.47,478.1c-.39,0-.87-.09-1.43-.26-.56-.17-1.01-.69-1.33-1.56l-5.23-15.37h-13.1l-5.2,15.37c-.48,1.21-1.41,1.82-2.79,1.82-.52,0-1.06-.09-1.62-.26-.95-.35-1.67-.88-2.15-1.59-.24-.39-.36-.81-.36-1.27,0-.32.05-.67.16-1.04l13.68-40.33c.04-.17.12-.3.23-.39,1.39-.91,2.93-1.4,4.62-1.46,1.67.11,3.17.58,4.52,1.43l.23.2s4.64,13.55,13.78,40.53c.11.37.16.71.16,1.04,0,.46-.18.96-.54,1.51-.36.55-1.04,1-2.03,1.35-.56.19-1.09.29-1.59.29ZM1651.65,455.45l-4.71-13.97-4.71,13.97h9.42Z"></path><path class="cls-1" d="M1737.62,478.1c-1.02,0-1.88-.24-2.58-.73-.7-.49-1.06-1.19-1.06-2.1v-20.05l-13.52-18.04c-.37-.52-.55-1.03-.55-1.53,0-1.06.58-2.04,1.75-2.93.85-.65,1.73-.97,2.67-.97.76,0,1.42.35,1.98,1.04l11.28,15.08,11.31-15.05c.56-.71,1.22-1.07,1.98-1.07.91,0,1.79.32,2.65.96.86.64,1.42,1.38,1.71,2.23.07.22.1.43.1.65,0,.52-.19,1.05-.58,1.59l-13.46,17.94v20.15c0,.91-.35,1.61-1.06,2.1-.71.49-1.58.73-2.62.73Z"></path><path class="cls-1" d="M1813.18,478.1c-1,0-1.83-.25-2.5-.75-.67-.5-1.05-1.2-1.14-2.11v-40.62c0-.91.33-1.61.99-2.1s1.5-.74,2.52-.76h13.36c3.64,0,6.81.82,9.52,2.47,2.64,1.54,4.12,3.69,4.42,6.47v8.38c-.3,2.77-1.78,4.93-4.42,6.47-2.64,1.6-5.82,2.43-9.52,2.47h-9.55v17.26c0,.91-.35,1.61-1.06,2.1-.7.49-1.58.73-2.62.73ZM1822.08,452.01c2.75,0,5.5-.41,8.25-1.23.91-.43,1.59-.89,2.03-1.37s.67-.91.67-1.3v-6.44c0-.41-.22-.85-.67-1.32-.44-.46-1.12-.92-2.03-1.35-2.47-.82-5.07-1.23-7.8-1.23-.67,0-1.33.02-1.98.06h-3.71v14.04l5.23.13Z"></path><path class="cls-1" d="M1870.57,478.1h-2.93c-3.68,0-6.91-.84-9.68-2.54-2.86-1.65-4.29-3.87-4.29-6.66v-34.29c0-.91.35-1.61,1.06-2.11.7-.5,1.56-.75,2.58-.75s1.91.25,2.62.75c.7.5,1.06,1.2,1.06,2.11v34.19c0,.46.28.98.83,1.56.55.58,1.41,1.08,2.57,1.49,1.16.41,2.73.62,4.73.62s3.57-.21,4.73-.62c1.16-.41,2.02-.91,2.57-1.49.55-.58.83-1.09.83-1.53v-34.22c0-.91.35-1.61,1.06-2.11.7-.5,1.58-.75,2.62-.75s1.88.25,2.58.75c.7.5,1.06,1.2,1.06,2.11v34.29c0,2.79-1.43,5.02-4.29,6.66-2.75,1.69-5.98,2.54-9.68,2.54Z"></path><path class="cls-1" d="M1916.85,478.1h-15.34c-1.02,0-1.88-.24-2.58-.73-.71-.49-1.06-1.19-1.06-2.1v-40.66c0-.91.33-1.61.99-2.1s1.5-.74,2.52-.76h13.33c3.64,0,6.83.82,9.55,2.47,2.64,1.54,4.12,3.69,4.42,6.47l-.03,7.87c-.06.54-.29,1.06-.67,1.56-.38.5-.82,1.01-1.32,1.53-.33.28-.99.96-1.98,2.05,4.12,1.93,6.17,4.32,6.17,7.18v8.03c0,2.79-1.44,5.02-4.32,6.66-2.75,1.69-5.98,2.54-9.68,2.54ZM1913.31,451.71c2.36-.04,4.3-.44,5.82-1.2,1.5-.71,2.24-1.56,2.24-2.53v-6.31c0-.41-.22-.85-.67-1.32-.44-.46-1.11-.9-2-1.32-1.84-.78-3.96-1.18-6.37-1.2h-7.15v13.85l8.12.03ZM1914.51,472.06l1.5-.13c3.38-.26,5.59-.89,6.63-1.88.52-.5.81-1.14.88-1.92v-7.15c0-.41-.22-.84-.67-1.28-.44-.44-1.1-.86-1.97-1.25-1.78-.76-3.85-1.15-6.21-1.17h-9.49v14.72c3.47,0,6.58.02,9.33.06Z"></path><path class="cls-1" d="M1969.63,478.1h-21.81c-1.02,0-1.88-.24-2.58-.73-.71-.49-1.06-1.19-1.06-2.1v-40.66c0-.91.36-1.61,1.09-2.11.73-.5,1.54-.75,2.45-.75,1.04,0,1.93.25,2.66.75.74.5,1.11,1.2,1.11,2.11v37.41h18.13c.95,0,1.67.29,2.16.88.49.58.73,1.3.73,2.15s-.24,1.59-.73,2.18c-.49.58-1.21.88-2.16.88Z"></path><path class="cls-1" d="M1989.49,478.1c-1.02,0-1.88-.24-2.58-.73-.71-.49-1.06-1.19-1.06-2.1v-40.66c0-.91.35-1.61,1.06-2.11.7-.5,1.56-.75,2.58-.75s1.91.25,2.62.75c.7.5,1.06,1.2,1.06,2.11v40.66c0,.91-.35,1.61-1.06,2.1-.7.49-1.58.73-2.62.73Z"></path><path class="cls-1" d="M2023.39,478.1h-2.93c-3.68,0-6.91-.84-9.68-2.54-2.86-1.65-4.29-3.87-4.29-6.66v-27.98c0-2.77,1.43-4.98,4.29-6.63,2.77-1.69,6-2.54,9.68-2.54h2.93c3.71,0,6.92.83,9.65,2.5,2.88,1.97,4.32,4.36,4.32,7.15v.71c0,.48-.13.89-.39,1.24-.72.97-1.72,1.46-3.02,1.46h-.46c-1.34,0-2.35-.46-3.02-1.4-.26-.37-.4-.8-.42-1.3v-.58c0-.87-.75-1.67-2.24-2.41-1.52-.76-3.48-1.19-5.88-1.3h-.36c-.78,0-1.72.13-2.81.39-1.09.26-2.19.66-3.3,1.2-1.1.54-1.66,1.29-1.66,2.24v27.14c0,.84.54,1.52,1.62,2.03,1.08.51,2.21.91,3.38,1.19,1.37.33,2.63.49,3.8.49,3.23,0,5.45-.66,6.66-1.98.46-.48.71-1.07.78-1.79v-3.54c.02-.48.17-.88.46-1.2.74-.87,1.77-1.3,3.09-1.3h.26c1.32,0,2.34.43,3.05,1.3.28.32.43.74.46,1.23v3.67c0,2.79-1.43,5.02-4.29,6.66-2.75,1.69-5.98,2.54-9.68,2.54Z"></path><path class="cls-1" d="M2054.33,478.1c-1.02,0-1.88-.24-2.58-.73-.71-.49-1.06-1.19-1.06-2.1v-40.66c0-.91.35-1.61,1.06-2.11.7-.5,1.56-.75,2.58-.75s1.91.25,2.62.75c.7.5,1.06,1.2,1.06,2.11v40.66c0,.91-.35,1.61-1.06,2.1-.7.49-1.58.73-2.62.73Z"></path><path class="cls-1" d="M2088.23,478.1h-13.26c-1.02,0-1.88-.24-2.58-.73-.71-.49-1.06-1.19-1.06-2.1v-40.66c0-.91.33-1.61.99-2.1s1.5-.74,2.52-.76h13.39c3.71,0,6.92.84,9.65,2.54,1.26.8,2.29,1.86,3.1,3.18.81,1.32,1.22,2.68,1.22,4.06v27.4c0,2.77-1.43,4.98-4.29,6.63-2.75,1.69-5.98,2.54-9.68,2.54ZM2085.62,471.99c2.34,0,4.47-.3,6.4-.91.91-.33,1.6-.71,2.06-1.17.46-.46.73-1.06.8-1.82v-26.46c0-.39-.22-.82-.65-1.28-.43-.46-1.09-.92-1.98-1.35-1.84-.78-3.98-1.18-6.4-1.2h-7.21v34.19h6.99Z"></path><path class="cls-1" d="M2147.44,478.1c-.39,0-.87-.09-1.43-.26-.56-.17-1.01-.69-1.33-1.56l-5.23-15.37h-13.1l-5.2,15.37c-.48,1.21-1.41,1.82-2.79,1.82-.52,0-1.06-.09-1.62-.26-.95-.35-1.67-.88-2.15-1.59-.24-.39-.36-.81-.36-1.27,0-.32.05-.67.16-1.04l13.68-40.33c.04-.17.12-.3.23-.39,1.39-.91,2.92-1.4,4.62-1.46,1.67.11,3.17.58,4.52,1.43l.23.2s4.64,13.55,13.78,40.53c.11.37.16.71.16,1.04,0,.46-.18.96-.54,1.51-.36.55-1.04,1-2.03,1.35-.56.19-1.09.29-1.59.29ZM2137.63,455.45l-4.71-13.97-4.71,13.97h9.43Z"></path><path class="cls-1" d="M2181.83,478.1h-13.26c-1.02,0-1.88-.24-2.58-.73-.71-.49-1.06-1.19-1.06-2.1v-40.66c0-.91.33-1.61.99-2.1s1.5-.74,2.52-.76h13.39c3.71,0,6.92.84,9.65,2.54,1.26.8,2.29,1.86,3.1,3.18.81,1.32,1.22,2.68,1.22,4.06v27.4c0,2.77-1.43,4.98-4.29,6.63-2.75,1.69-5.98,2.54-9.68,2.54ZM2179.23,471.99c2.34,0,4.47-.3,6.4-.91.91-.33,1.6-.71,2.06-1.17.46-.46.73-1.06.8-1.82v-26.46c0-.39-.22-.82-.65-1.28-.43-.46-1.09-.92-1.98-1.35-1.84-.78-3.98-1.18-6.4-1.2h-7.21v34.19h6.99Z"></path></g></g></g></svg> 