<?xml version="1.0" encoding="UTF-8"?> <svg xmlns="http://www.w3.org/2000/svg" id="Livello_2" viewBox="0 0 220.63 173.64"><defs><style> .cls-1 { fill: #fff; } .cls-2 { fill: #f2f2f2; } </style></defs><g id="Livello_1-2" data-name="Livello_1"><g><path class="cls-1" d="M209.1,5.85c2.84-.08,5.05-1.31,6.83-3.53.77-.96,1.39-2.75,3-2.06,1.47.63,1.84,2.32,1.64,3.86-.39,2.96-.91,5.91-1.4,8.85-6.99,41.53-13.53,83.1-13.42,125.38,0,2.75-.14,5.38,1.3,8.18,1.51,2.92-.7,5.39-3.74,6.31-2.08.63-4.22.13-6.37-.46-24.34-6.73-48.72-13.36-71.8-23.85-2.47-1.12-4.02-.99-5.96,1.22-11.28,12.9-22.83,25.57-34.14,38.44-6.95,7.9-11.68,7.34-14.97-2.75-4.21-12.94-7.69-26.13-11.44-39.22-2.66-9.26-5.39-18.51-7.82-27.83-1.23-4.71-3.78-7.72-8.27-9.77-13.9-6.36-27.97-12.53-39.18-23.41-1.25-1.21-3.67-1.92-3.33-3.95.36-2.11,2.76-1.97,4.49-2.48.92-.27,2.48-.8,2.51-1.29.3-5,4.58-4.52,7.58-5.56,45.04-15.71,91.18-27.84,136.65-42.16,15.82-4.98,32.68-5.91,49.08-8.61,1.81-.3,3.62-.59,5.44-.78,1.23-.13,2.76-1.04,3.61.45.84,1.47-.03,2.85-1.01,4.04-.16.31-.32.62-.48.93.4,0,.81.02,1.21.03ZM211.33,15.21c-2.16.03-3.23,1.44-4.49,2.43-17.12,13.48-34.13,27.1-51.71,39.98-22.14,16.21-43.96,32.87-66.86,48.01-1.08.72-2.53,1.4-2,2.99.32.96,1.52,1.12,2.57,1.15,11.27.29,21.89,3.7,32.51,6.98,23.49,7.24,46.08,17.17,69.97,23.29,4.42,1.13,5.16.13,5.15-3.68-.05-14.16,1.19-28.26,2.19-42.37,1.78-24.91,4.44-49.68,12.02-73.64.49-1.54,1.28-3.09.64-5.14ZM193.46,10.66c-4.24-.89-7.13-.41-10.04-.01-16.89,2.33-32.82,8.34-49.1,12.96-33.38,9.49-66.1,21.19-99.69,30.03-6.88,1.81-13.72,3.8-21.27,5.9,12.3,8.9,24.33,16.26,36.64,23.21,2.65,1.5,4.38.27,6.25-1.08,29.94-21.63,62.75-38.13,96.15-53.52,13.11-6.04,26.56-11.34,41.06-17.49ZM184.75,24.43c-.98-.07-1.5-.23-1.94-.11-.96.26-1.89.63-2.81,1.02-41.21,17.51-81.07,37.59-118.58,62.19-3.39,2.22-4.42,4.36-3.21,8.18,3.29,10.45,6.34,20.98,9.49,31.47,1.75,5.82,3.02,11.8,5.93,18.35,1.77-12.28,3.43-23.55,4.98-34.84.48-3.46.23-7.17,5.49-6.92.88.04,1.87-1.26,2.74-2.01,4.14-3.59,8.26-7.22,12.39-10.82,19.09-16.63,40.19-30.6,60.43-45.72,8.6-6.42,17.21-12.86,25.09-20.79ZM80.7,159.37c.68-.13,1.11-.07,1.27-.26,9.36-10.81,18.69-21.64,28.05-32.44,1.21-1.39,1.01-2.12-.64-2.94-6.71-3.36-13.62-6.15-20.96-7.8-1.7-.38-2.83-.28-3.07,1.91-1.5,13.81-3.09,27.62-4.66,41.54Z"></path><path class="cls-2" d="M209.1,5.85c-.4,0-.81-.02-1.21-.03.16-.31.32-.62.48-.93.24.32.49.64.73.96Z"></path></g></g></svg> 